<mxfile>
    <diagram id="cM_fN1VBo-i5EBFMYguv" name="ページ1">
        <mxGraphModel dx="1896" dy="800" grid="1" gridSize="10" guides="1" tooltips="1" connect="1" arrows="1" fold="1" page="1" pageScale="1" pageWidth="827" pageHeight="1169" math="0" shadow="0">
            <root>
                <mxCell id="0"/>
                <mxCell id="1" parent="0"/>
                <mxCell id="uvdAkfdV5YpjEirYYsNc-48" value="ユーザー情報&#10;users" style="shape=table;startSize=40;container=1;collapsible=1;childLayout=tableLayout;fixedRows=1;rowLines=0;fontStyle=1;align=center;resizeLast=1;" parent="1" vertex="1">
                    <mxGeometry x="10" y="240" width="500" height="300" as="geometry"/>
                </mxCell>
                <mxCell id="uvdAkfdV5YpjEirYYsNc-52" value="" style="shape=partialRectangle;collapsible=0;dropTarget=0;pointerEvents=0;fillColor=none;top=0;left=0;bottom=1;right=0;points=[[0,0.5],[1,0.5]];portConstraint=eastwest;" parent="uvdAkfdV5YpjEirYYsNc-48" vertex="1">
                    <mxGeometry y="40" width="500" height="30" as="geometry"/>
                </mxCell>
                <mxCell id="uvdAkfdV5YpjEirYYsNc-53" value="保存したいもの" style="shape=partialRectangle;connectable=0;fillColor=none;top=0;left=0;bottom=0;right=0;fontStyle=1;overflow=hidden;" parent="uvdAkfdV5YpjEirYYsNc-52" vertex="1">
                    <mxGeometry width="100" height="30" as="geometry"/>
                </mxCell>
                <mxCell id="uvdAkfdV5YpjEirYYsNc-54" value="column" style="shape=partialRectangle;connectable=0;fillColor=none;top=0;left=0;bottom=0;right=0;align=left;spacingLeft=6;fontStyle=5;overflow=hidden;" parent="uvdAkfdV5YpjEirYYsNc-52" vertex="1">
                    <mxGeometry x="100" width="110" height="30" as="geometry"/>
                </mxCell>
                <mxCell id="33" value="型" style="shape=partialRectangle;connectable=0;fillColor=none;top=0;left=0;bottom=0;right=0;align=left;spacingLeft=6;fontStyle=5;overflow=hidden;" parent="uvdAkfdV5YpjEirYYsNc-52" vertex="1">
                    <mxGeometry x="210" width="90" height="30" as="geometry"/>
                </mxCell>
                <mxCell id="uvdAkfdV5YpjEirYYsNc-62" value="必須かどうか" style="shape=partialRectangle;connectable=0;fillColor=none;top=0;left=0;bottom=0;right=0;align=left;spacingLeft=6;fontStyle=5;overflow=hidden;" parent="uvdAkfdV5YpjEirYYsNc-52" vertex="1">
                    <mxGeometry x="300" width="100" height="30" as="geometry"/>
                </mxCell>
                <mxCell id="66" value="備考" style="shape=partialRectangle;connectable=0;fillColor=none;top=0;left=0;bottom=0;right=0;align=left;spacingLeft=6;fontStyle=5;overflow=hidden;" vertex="1" parent="uvdAkfdV5YpjEirYYsNc-52">
                    <mxGeometry x="400" width="100" height="30" as="geometry"/>
                </mxCell>
                <mxCell id="uvdAkfdV5YpjEirYYsNc-55" value="" style="shape=partialRectangle;collapsible=0;dropTarget=0;pointerEvents=0;fillColor=none;top=0;left=0;bottom=0;right=0;points=[[0,0.5],[1,0.5]];portConstraint=eastwest;" parent="uvdAkfdV5YpjEirYYsNc-48" vertex="1">
                    <mxGeometry y="70" width="500" height="30" as="geometry"/>
                </mxCell>
                <mxCell id="uvdAkfdV5YpjEirYYsNc-56" value="ニックネーム" style="shape=partialRectangle;connectable=0;fillColor=none;top=0;left=0;bottom=0;right=0;editable=1;overflow=hidden;" parent="uvdAkfdV5YpjEirYYsNc-55" vertex="1">
                    <mxGeometry width="100" height="30" as="geometry"/>
                </mxCell>
                <mxCell id="uvdAkfdV5YpjEirYYsNc-57" value="nickname" style="shape=partialRectangle;connectable=0;fillColor=none;top=0;left=0;bottom=0;right=0;align=left;spacingLeft=6;overflow=hidden;" parent="uvdAkfdV5YpjEirYYsNc-55" vertex="1">
                    <mxGeometry x="100" width="110" height="30" as="geometry"/>
                </mxCell>
                <mxCell id="34" value="string" style="shape=partialRectangle;connectable=0;fillColor=none;top=0;left=0;bottom=0;right=0;align=left;spacingLeft=6;overflow=hidden;" parent="uvdAkfdV5YpjEirYYsNc-55" vertex="1">
                    <mxGeometry x="210" width="90" height="30" as="geometry"/>
                </mxCell>
                <mxCell id="uvdAkfdV5YpjEirYYsNc-63" value="null: false" style="shape=partialRectangle;connectable=0;fillColor=none;top=0;left=0;bottom=0;right=0;align=left;spacingLeft=6;overflow=hidden;" parent="uvdAkfdV5YpjEirYYsNc-55" vertex="1">
                    <mxGeometry x="300" width="100" height="30" as="geometry"/>
                </mxCell>
                <mxCell id="67" style="shape=partialRectangle;connectable=0;fillColor=none;top=0;left=0;bottom=0;right=0;align=left;spacingLeft=6;overflow=hidden;" vertex="1" parent="uvdAkfdV5YpjEirYYsNc-55">
                    <mxGeometry x="400" width="100" height="30" as="geometry"/>
                </mxCell>
                <mxCell id="uvdAkfdV5YpjEirYYsNc-58" value="" style="shape=partialRectangle;collapsible=0;dropTarget=0;pointerEvents=0;fillColor=none;top=0;left=0;bottom=0;right=0;points=[[0,0.5],[1,0.5]];portConstraint=eastwest;" parent="uvdAkfdV5YpjEirYYsNc-48" vertex="1">
                    <mxGeometry y="100" width="500" height="30" as="geometry"/>
                </mxCell>
                <mxCell id="uvdAkfdV5YpjEirYYsNc-59" value="Eメール" style="shape=partialRectangle;connectable=0;fillColor=none;top=0;left=0;bottom=0;right=0;editable=1;overflow=hidden;" parent="uvdAkfdV5YpjEirYYsNc-58" vertex="1">
                    <mxGeometry width="100" height="30" as="geometry"/>
                </mxCell>
                <mxCell id="uvdAkfdV5YpjEirYYsNc-60" value="email" style="shape=partialRectangle;connectable=0;fillColor=none;top=0;left=0;bottom=0;right=0;align=left;spacingLeft=6;overflow=hidden;" parent="uvdAkfdV5YpjEirYYsNc-58" vertex="1">
                    <mxGeometry x="100" width="110" height="30" as="geometry"/>
                </mxCell>
                <mxCell id="35" value="string" style="shape=partialRectangle;connectable=0;fillColor=none;top=0;left=0;bottom=0;right=0;align=left;spacingLeft=6;overflow=hidden;" parent="uvdAkfdV5YpjEirYYsNc-58" vertex="1">
                    <mxGeometry x="210" width="90" height="30" as="geometry"/>
                </mxCell>
                <mxCell id="uvdAkfdV5YpjEirYYsNc-64" value="null: false" style="shape=partialRectangle;connectable=0;fillColor=none;top=0;left=0;bottom=0;right=0;align=left;spacingLeft=6;overflow=hidden;" parent="uvdAkfdV5YpjEirYYsNc-58" vertex="1">
                    <mxGeometry x="300" width="100" height="30" as="geometry"/>
                </mxCell>
                <mxCell id="68" value="unique: true" style="shape=partialRectangle;connectable=0;fillColor=none;top=0;left=0;bottom=0;right=0;align=left;spacingLeft=6;overflow=hidden;" vertex="1" parent="uvdAkfdV5YpjEirYYsNc-58">
                    <mxGeometry x="400" width="100" height="30" as="geometry"/>
                </mxCell>
                <mxCell id="90" value="" style="shape=partialRectangle;collapsible=0;dropTarget=0;pointerEvents=0;fillColor=none;top=0;left=0;bottom=0;right=0;points=[[0,0.5],[1,0.5]];portConstraint=eastwest;" vertex="1" parent="uvdAkfdV5YpjEirYYsNc-48">
                    <mxGeometry y="130" width="500" height="30" as="geometry"/>
                </mxCell>
                <mxCell id="91" value="パスワード" style="shape=partialRectangle;connectable=0;fillColor=none;top=0;left=0;bottom=0;right=0;editable=1;overflow=hidden;" vertex="1" parent="90">
                    <mxGeometry width="100" height="30" as="geometry"/>
                </mxCell>
                <mxCell id="92" value="password" style="shape=partialRectangle;connectable=0;fillColor=none;top=0;left=0;bottom=0;right=0;align=left;spacingLeft=6;overflow=hidden;" vertex="1" parent="90">
                    <mxGeometry x="100" width="110" height="30" as="geometry"/>
                </mxCell>
                <mxCell id="93" value="string" style="shape=partialRectangle;connectable=0;fillColor=none;top=0;left=0;bottom=0;right=0;align=left;spacingLeft=6;overflow=hidden;" vertex="1" parent="90">
                    <mxGeometry x="210" width="90" height="30" as="geometry"/>
                </mxCell>
                <mxCell id="94" value="null: false" style="shape=partialRectangle;connectable=0;fillColor=none;top=0;left=0;bottom=0;right=0;align=left;spacingLeft=6;overflow=hidden;" vertex="1" parent="90">
                    <mxGeometry x="300" width="100" height="30" as="geometry"/>
                </mxCell>
                <mxCell id="95" value="" style="shape=partialRectangle;connectable=0;fillColor=none;top=0;left=0;bottom=0;right=0;align=left;spacingLeft=6;overflow=hidden;" vertex="1" parent="90">
                    <mxGeometry x="400" width="100" height="30" as="geometry"/>
                </mxCell>
                <mxCell id="uvdAkfdV5YpjEirYYsNc-80" value="" style="shape=partialRectangle;collapsible=0;dropTarget=0;pointerEvents=0;fillColor=none;top=0;left=0;bottom=0;right=0;points=[[0,0.5],[1,0.5]];portConstraint=eastwest;" parent="uvdAkfdV5YpjEirYYsNc-48" vertex="1">
                    <mxGeometry y="160" width="500" height="20" as="geometry"/>
                </mxCell>
                <mxCell id="uvdAkfdV5YpjEirYYsNc-81" value="性" style="shape=partialRectangle;connectable=0;fillColor=none;top=0;left=0;bottom=0;right=0;editable=1;overflow=hidden;" parent="uvdAkfdV5YpjEirYYsNc-80" vertex="1">
                    <mxGeometry width="100" height="20" as="geometry"/>
                </mxCell>
                <mxCell id="uvdAkfdV5YpjEirYYsNc-82" value="last_name" style="shape=partialRectangle;connectable=0;fillColor=none;top=0;left=0;bottom=0;right=0;align=left;spacingLeft=6;overflow=hidden;" parent="uvdAkfdV5YpjEirYYsNc-80" vertex="1">
                    <mxGeometry x="100" width="110" height="20" as="geometry"/>
                </mxCell>
                <mxCell id="36" value="string" style="shape=partialRectangle;connectable=0;fillColor=none;top=0;left=0;bottom=0;right=0;align=left;spacingLeft=6;overflow=hidden;" parent="uvdAkfdV5YpjEirYYsNc-80" vertex="1">
                    <mxGeometry x="210" width="90" height="20" as="geometry"/>
                </mxCell>
                <mxCell id="uvdAkfdV5YpjEirYYsNc-83" value="null: false" style="shape=partialRectangle;connectable=0;fillColor=none;top=0;left=0;bottom=0;right=0;align=left;spacingLeft=6;overflow=hidden;" parent="uvdAkfdV5YpjEirYYsNc-80" vertex="1">
                    <mxGeometry x="300" width="100" height="20" as="geometry"/>
                </mxCell>
                <mxCell id="69" style="shape=partialRectangle;connectable=0;fillColor=none;top=0;left=0;bottom=0;right=0;align=left;spacingLeft=6;overflow=hidden;" vertex="1" parent="uvdAkfdV5YpjEirYYsNc-80">
                    <mxGeometry x="400" width="100" height="20" as="geometry"/>
                </mxCell>
                <mxCell id="uvdAkfdV5YpjEirYYsNc-85" value="" style="shape=partialRectangle;collapsible=0;dropTarget=0;pointerEvents=0;fillColor=none;top=0;left=0;bottom=0;right=0;points=[[0,0.5],[1,0.5]];portConstraint=eastwest;" parent="uvdAkfdV5YpjEirYYsNc-48" vertex="1">
                    <mxGeometry y="180" width="500" height="30" as="geometry"/>
                </mxCell>
                <mxCell id="uvdAkfdV5YpjEirYYsNc-86" value="名" style="shape=partialRectangle;connectable=0;fillColor=none;top=0;left=0;bottom=0;right=0;editable=1;overflow=hidden;" parent="uvdAkfdV5YpjEirYYsNc-85" vertex="1">
                    <mxGeometry width="100" height="30" as="geometry"/>
                </mxCell>
                <mxCell id="uvdAkfdV5YpjEirYYsNc-87" value=" first_name" style="shape=partialRectangle;connectable=0;fillColor=none;top=0;left=0;bottom=0;right=0;align=left;spacingLeft=6;overflow=hidden;" parent="uvdAkfdV5YpjEirYYsNc-85" vertex="1">
                    <mxGeometry x="100" width="110" height="30" as="geometry"/>
                </mxCell>
                <mxCell id="37" value="string" style="shape=partialRectangle;connectable=0;fillColor=none;top=0;left=0;bottom=0;right=0;align=left;spacingLeft=6;overflow=hidden;" parent="uvdAkfdV5YpjEirYYsNc-85" vertex="1">
                    <mxGeometry x="210" width="90" height="30" as="geometry"/>
                </mxCell>
                <mxCell id="uvdAkfdV5YpjEirYYsNc-88" value="null: false" style="shape=partialRectangle;connectable=0;fillColor=none;top=0;left=0;bottom=0;right=0;align=left;spacingLeft=6;overflow=hidden;" parent="uvdAkfdV5YpjEirYYsNc-85" vertex="1">
                    <mxGeometry x="300" width="100" height="30" as="geometry"/>
                </mxCell>
                <mxCell id="70" style="shape=partialRectangle;connectable=0;fillColor=none;top=0;left=0;bottom=0;right=0;align=left;spacingLeft=6;overflow=hidden;" vertex="1" parent="uvdAkfdV5YpjEirYYsNc-85">
                    <mxGeometry x="400" width="100" height="30" as="geometry"/>
                </mxCell>
                <mxCell id="uvdAkfdV5YpjEirYYsNc-90" value="" style="shape=partialRectangle;collapsible=0;dropTarget=0;pointerEvents=0;fillColor=none;top=0;left=0;bottom=0;right=0;points=[[0,0.5],[1,0.5]];portConstraint=eastwest;" parent="uvdAkfdV5YpjEirYYsNc-48" vertex="1">
                    <mxGeometry y="210" width="500" height="30" as="geometry"/>
                </mxCell>
                <mxCell id="uvdAkfdV5YpjEirYYsNc-91" value="性（カタカナ）" style="shape=partialRectangle;connectable=0;fillColor=none;top=0;left=0;bottom=0;right=0;editable=1;overflow=hidden;" parent="uvdAkfdV5YpjEirYYsNc-90" vertex="1">
                    <mxGeometry width="100" height="30" as="geometry"/>
                </mxCell>
                <mxCell id="uvdAkfdV5YpjEirYYsNc-92" value=" last_name_kana" style="shape=partialRectangle;connectable=0;fillColor=none;top=0;left=0;bottom=0;right=0;align=left;spacingLeft=6;overflow=hidden;" parent="uvdAkfdV5YpjEirYYsNc-90" vertex="1">
                    <mxGeometry x="100" width="110" height="30" as="geometry"/>
                </mxCell>
                <mxCell id="38" value="string" style="shape=partialRectangle;connectable=0;fillColor=none;top=0;left=0;bottom=0;right=0;align=left;spacingLeft=6;overflow=hidden;" parent="uvdAkfdV5YpjEirYYsNc-90" vertex="1">
                    <mxGeometry x="210" width="90" height="30" as="geometry"/>
                </mxCell>
                <mxCell id="uvdAkfdV5YpjEirYYsNc-93" value="null: false" style="shape=partialRectangle;connectable=0;fillColor=none;top=0;left=0;bottom=0;right=0;align=left;spacingLeft=6;overflow=hidden;" parent="uvdAkfdV5YpjEirYYsNc-90" vertex="1">
                    <mxGeometry x="300" width="100" height="30" as="geometry"/>
                </mxCell>
                <mxCell id="71" style="shape=partialRectangle;connectable=0;fillColor=none;top=0;left=0;bottom=0;right=0;align=left;spacingLeft=6;overflow=hidden;" vertex="1" parent="uvdAkfdV5YpjEirYYsNc-90">
                    <mxGeometry x="400" width="100" height="30" as="geometry"/>
                </mxCell>
                <mxCell id="uvdAkfdV5YpjEirYYsNc-95" value="" style="shape=partialRectangle;collapsible=0;dropTarget=0;pointerEvents=0;fillColor=none;top=0;left=0;bottom=0;right=0;points=[[0,0.5],[1,0.5]];portConstraint=eastwest;" parent="uvdAkfdV5YpjEirYYsNc-48" vertex="1">
                    <mxGeometry y="240" width="500" height="30" as="geometry"/>
                </mxCell>
                <mxCell id="uvdAkfdV5YpjEirYYsNc-96" value="名（カタカナ）" style="shape=partialRectangle;connectable=0;fillColor=none;top=0;left=0;bottom=0;right=0;editable=1;overflow=hidden;" parent="uvdAkfdV5YpjEirYYsNc-95" vertex="1">
                    <mxGeometry width="100" height="30" as="geometry"/>
                </mxCell>
                <mxCell id="uvdAkfdV5YpjEirYYsNc-97" value=" first_name_kana" style="shape=partialRectangle;connectable=0;fillColor=none;top=0;left=0;bottom=0;right=0;align=left;spacingLeft=6;overflow=hidden;" parent="uvdAkfdV5YpjEirYYsNc-95" vertex="1">
                    <mxGeometry x="100" width="110" height="30" as="geometry"/>
                </mxCell>
                <mxCell id="39" value="string" style="shape=partialRectangle;connectable=0;fillColor=none;top=0;left=0;bottom=0;right=0;align=left;spacingLeft=6;overflow=hidden;" parent="uvdAkfdV5YpjEirYYsNc-95" vertex="1">
                    <mxGeometry x="210" width="90" height="30" as="geometry"/>
                </mxCell>
                <mxCell id="uvdAkfdV5YpjEirYYsNc-98" value="null: false" style="shape=partialRectangle;connectable=0;fillColor=none;top=0;left=0;bottom=0;right=0;align=left;spacingLeft=6;overflow=hidden;" parent="uvdAkfdV5YpjEirYYsNc-95" vertex="1">
                    <mxGeometry x="300" width="100" height="30" as="geometry"/>
                </mxCell>
                <mxCell id="72" style="shape=partialRectangle;connectable=0;fillColor=none;top=0;left=0;bottom=0;right=0;align=left;spacingLeft=6;overflow=hidden;" vertex="1" parent="uvdAkfdV5YpjEirYYsNc-95">
                    <mxGeometry x="400" width="100" height="30" as="geometry"/>
                </mxCell>
                <mxCell id="uvdAkfdV5YpjEirYYsNc-100" value="" style="shape=partialRectangle;collapsible=0;dropTarget=0;pointerEvents=0;fillColor=none;top=0;left=0;bottom=0;right=0;points=[[0,0.5],[1,0.5]];portConstraint=eastwest;" parent="uvdAkfdV5YpjEirYYsNc-48" vertex="1">
                    <mxGeometry y="270" width="500" height="30" as="geometry"/>
                </mxCell>
                <mxCell id="uvdAkfdV5YpjEirYYsNc-101" value="誕生日" style="shape=partialRectangle;connectable=0;fillColor=none;top=0;left=0;bottom=0;right=0;editable=1;overflow=hidden;" parent="uvdAkfdV5YpjEirYYsNc-100" vertex="1">
                    <mxGeometry width="100" height="30" as="geometry"/>
                </mxCell>
                <mxCell id="uvdAkfdV5YpjEirYYsNc-102" value="birthday" style="shape=partialRectangle;connectable=0;fillColor=none;top=0;left=0;bottom=0;right=0;align=left;spacingLeft=6;overflow=hidden;" parent="uvdAkfdV5YpjEirYYsNc-100" vertex="1">
                    <mxGeometry x="100" width="110" height="30" as="geometry"/>
                </mxCell>
                <mxCell id="40" value="date" style="shape=partialRectangle;connectable=0;fillColor=none;top=0;left=0;bottom=0;right=0;align=left;spacingLeft=6;overflow=hidden;" parent="uvdAkfdV5YpjEirYYsNc-100" vertex="1">
                    <mxGeometry x="210" width="90" height="30" as="geometry"/>
                </mxCell>
                <mxCell id="uvdAkfdV5YpjEirYYsNc-103" value="null: false" style="shape=partialRectangle;connectable=0;fillColor=none;top=0;left=0;bottom=0;right=0;align=left;spacingLeft=6;overflow=hidden;" parent="uvdAkfdV5YpjEirYYsNc-100" vertex="1">
                    <mxGeometry x="300" width="100" height="30" as="geometry"/>
                </mxCell>
                <mxCell id="73" value="カテゴリ選択" style="shape=partialRectangle;connectable=0;fillColor=none;top=0;left=0;bottom=0;right=0;align=left;spacingLeft=6;overflow=hidden;" vertex="1" parent="uvdAkfdV5YpjEirYYsNc-100">
                    <mxGeometry x="400" width="100" height="30" as="geometry"/>
                </mxCell>
                <mxCell id="uvdAkfdV5YpjEirYYsNc-161" value="商品情報&#10;items" style="shape=table;startSize=40;container=1;collapsible=1;childLayout=tableLayout;fixedRows=1;rowLines=0;fontStyle=1;align=center;resizeLast=1;" parent="1" vertex="1">
                    <mxGeometry x="650" y="240" width="600" height="360" as="geometry"/>
                </mxCell>
                <mxCell id="uvdAkfdV5YpjEirYYsNc-162" value="" style="shape=partialRectangle;collapsible=0;dropTarget=0;pointerEvents=0;fillColor=none;top=0;left=0;bottom=1;right=0;points=[[0,0.5],[1,0.5]];portConstraint=eastwest;" parent="uvdAkfdV5YpjEirYYsNc-161" vertex="1">
                    <mxGeometry y="40" width="600" height="30" as="geometry"/>
                </mxCell>
                <mxCell id="uvdAkfdV5YpjEirYYsNc-163" value="保存したいもの" style="shape=partialRectangle;connectable=0;fillColor=none;top=0;left=0;bottom=0;right=0;fontStyle=1;overflow=hidden;" parent="uvdAkfdV5YpjEirYYsNc-162" vertex="1">
                    <mxGeometry width="100" height="30" as="geometry"/>
                </mxCell>
                <mxCell id="uvdAkfdV5YpjEirYYsNc-164" value="column" style="shape=partialRectangle;connectable=0;fillColor=none;top=0;left=0;bottom=0;right=0;align=left;spacingLeft=6;fontStyle=5;overflow=hidden;" parent="uvdAkfdV5YpjEirYYsNc-162" vertex="1">
                    <mxGeometry x="100" width="110" height="30" as="geometry"/>
                </mxCell>
                <mxCell id="55" value="型" style="shape=partialRectangle;connectable=0;fillColor=none;top=0;left=0;bottom=0;right=0;align=left;spacingLeft=6;fontStyle=5;overflow=hidden;" parent="uvdAkfdV5YpjEirYYsNc-162" vertex="1">
                    <mxGeometry x="210" width="110" height="30" as="geometry"/>
                </mxCell>
                <mxCell id="uvdAkfdV5YpjEirYYsNc-165" value="必須かどうか" style="shape=partialRectangle;connectable=0;fillColor=none;top=0;left=0;bottom=0;right=0;align=left;spacingLeft=6;fontStyle=5;overflow=hidden;" parent="uvdAkfdV5YpjEirYYsNc-162" vertex="1">
                    <mxGeometry x="320" width="90" height="30" as="geometry"/>
                </mxCell>
                <mxCell id="79" value="備考" style="shape=partialRectangle;connectable=0;fillColor=none;top=0;left=0;bottom=0;right=0;align=left;spacingLeft=6;fontStyle=5;overflow=hidden;" vertex="1" parent="uvdAkfdV5YpjEirYYsNc-162">
                    <mxGeometry x="410" width="190" height="30" as="geometry"/>
                </mxCell>
                <mxCell id="uvdAkfdV5YpjEirYYsNc-167" value="" style="shape=partialRectangle;collapsible=0;dropTarget=0;pointerEvents=0;fillColor=none;top=0;left=0;bottom=0;right=0;points=[[0,0.5],[1,0.5]];portConstraint=eastwest;" parent="uvdAkfdV5YpjEirYYsNc-161" vertex="1">
                    <mxGeometry y="70" width="600" height="20" as="geometry"/>
                </mxCell>
                <mxCell id="uvdAkfdV5YpjEirYYsNc-168" value="商品画像" style="shape=partialRectangle;connectable=0;fillColor=none;top=0;left=0;bottom=0;right=0;editable=1;overflow=hidden;" parent="uvdAkfdV5YpjEirYYsNc-167" vertex="1">
                    <mxGeometry width="100" height="20" as="geometry"/>
                </mxCell>
                <mxCell id="uvdAkfdV5YpjEirYYsNc-169" value="image" style="shape=partialRectangle;connectable=0;fillColor=none;top=0;left=0;bottom=0;right=0;align=left;spacingLeft=6;overflow=hidden;" parent="uvdAkfdV5YpjEirYYsNc-167" vertex="1">
                    <mxGeometry x="100" width="110" height="20" as="geometry"/>
                </mxCell>
                <mxCell id="56" style="shape=partialRectangle;connectable=0;fillColor=none;top=0;left=0;bottom=0;right=0;align=left;spacingLeft=6;overflow=hidden;" parent="uvdAkfdV5YpjEirYYsNc-167" vertex="1">
                    <mxGeometry x="210" width="110" height="20" as="geometry"/>
                </mxCell>
                <mxCell id="uvdAkfdV5YpjEirYYsNc-170" value="null: false" style="shape=partialRectangle;connectable=0;fillColor=none;top=0;left=0;bottom=0;right=0;align=left;spacingLeft=6;overflow=hidden;" parent="uvdAkfdV5YpjEirYYsNc-167" vertex="1">
                    <mxGeometry x="320" width="90" height="20" as="geometry"/>
                </mxCell>
                <mxCell id="80" value="ActiveStorage" style="shape=partialRectangle;connectable=0;fillColor=none;top=0;left=0;bottom=0;right=0;align=left;spacingLeft=6;overflow=hidden;" vertex="1" parent="uvdAkfdV5YpjEirYYsNc-167">
                    <mxGeometry x="410" width="190" height="20" as="geometry"/>
                </mxCell>
                <mxCell id="uvdAkfdV5YpjEirYYsNc-172" value="" style="shape=partialRectangle;collapsible=0;dropTarget=0;pointerEvents=0;fillColor=none;top=0;left=0;bottom=0;right=0;points=[[0,0.5],[1,0.5]];portConstraint=eastwest;" parent="uvdAkfdV5YpjEirYYsNc-161" vertex="1">
                    <mxGeometry y="90" width="600" height="30" as="geometry"/>
                </mxCell>
                <mxCell id="uvdAkfdV5YpjEirYYsNc-173" value="商品名" style="shape=partialRectangle;connectable=0;fillColor=none;top=0;left=0;bottom=0;right=0;editable=1;overflow=hidden;" parent="uvdAkfdV5YpjEirYYsNc-172" vertex="1">
                    <mxGeometry width="100" height="30" as="geometry"/>
                </mxCell>
                <mxCell id="uvdAkfdV5YpjEirYYsNc-174" value="item_name" style="shape=partialRectangle;connectable=0;fillColor=none;top=0;left=0;bottom=0;right=0;align=left;spacingLeft=6;overflow=hidden;" parent="uvdAkfdV5YpjEirYYsNc-172" vertex="1">
                    <mxGeometry x="100" width="110" height="30" as="geometry"/>
                </mxCell>
                <mxCell id="57" value="string" style="shape=partialRectangle;connectable=0;fillColor=none;top=0;left=0;bottom=0;right=0;align=left;spacingLeft=6;overflow=hidden;" parent="uvdAkfdV5YpjEirYYsNc-172" vertex="1">
                    <mxGeometry x="210" width="110" height="30" as="geometry"/>
                </mxCell>
                <mxCell id="uvdAkfdV5YpjEirYYsNc-175" value="null: false" style="shape=partialRectangle;connectable=0;fillColor=none;top=0;left=0;bottom=0;right=0;align=left;spacingLeft=6;overflow=hidden;" parent="uvdAkfdV5YpjEirYYsNc-172" vertex="1">
                    <mxGeometry x="320" width="90" height="30" as="geometry"/>
                </mxCell>
                <mxCell id="81" style="shape=partialRectangle;connectable=0;fillColor=none;top=0;left=0;bottom=0;right=0;align=left;spacingLeft=6;overflow=hidden;" vertex="1" parent="uvdAkfdV5YpjEirYYsNc-172">
                    <mxGeometry x="410" width="190" height="30" as="geometry"/>
                </mxCell>
                <mxCell id="uvdAkfdV5YpjEirYYsNc-177" value="" style="shape=partialRectangle;collapsible=0;dropTarget=0;pointerEvents=0;fillColor=none;top=0;left=0;bottom=0;right=0;points=[[0,0.5],[1,0.5]];portConstraint=eastwest;" parent="uvdAkfdV5YpjEirYYsNc-161" vertex="1">
                    <mxGeometry y="120" width="600" height="30" as="geometry"/>
                </mxCell>
                <mxCell id="uvdAkfdV5YpjEirYYsNc-178" value="商品説明" style="shape=partialRectangle;connectable=0;fillColor=none;top=0;left=0;bottom=0;right=0;editable=1;overflow=hidden;" parent="uvdAkfdV5YpjEirYYsNc-177" vertex="1">
                    <mxGeometry width="100" height="30" as="geometry"/>
                </mxCell>
                <mxCell id="uvdAkfdV5YpjEirYYsNc-179" value="description" style="shape=partialRectangle;connectable=0;fillColor=none;top=0;left=0;bottom=0;right=0;align=left;spacingLeft=6;overflow=hidden;" parent="uvdAkfdV5YpjEirYYsNc-177" vertex="1">
                    <mxGeometry x="100" width="110" height="30" as="geometry"/>
                </mxCell>
                <mxCell id="58" value="text" style="shape=partialRectangle;connectable=0;fillColor=none;top=0;left=0;bottom=0;right=0;align=left;spacingLeft=6;overflow=hidden;" parent="uvdAkfdV5YpjEirYYsNc-177" vertex="1">
                    <mxGeometry x="210" width="110" height="30" as="geometry"/>
                </mxCell>
                <mxCell id="uvdAkfdV5YpjEirYYsNc-180" value="null: false" style="shape=partialRectangle;connectable=0;fillColor=none;top=0;left=0;bottom=0;right=0;align=left;spacingLeft=6;overflow=hidden;" parent="uvdAkfdV5YpjEirYYsNc-177" vertex="1">
                    <mxGeometry x="320" width="90" height="30" as="geometry"/>
                </mxCell>
                <mxCell id="82" style="shape=partialRectangle;connectable=0;fillColor=none;top=0;left=0;bottom=0;right=0;align=left;spacingLeft=6;overflow=hidden;" vertex="1" parent="uvdAkfdV5YpjEirYYsNc-177">
                    <mxGeometry x="410" width="190" height="30" as="geometry"/>
                </mxCell>
                <mxCell id="uvdAkfdV5YpjEirYYsNc-182" value="" style="shape=partialRectangle;collapsible=0;dropTarget=0;pointerEvents=0;fillColor=none;top=0;left=0;bottom=0;right=0;points=[[0,0.5],[1,0.5]];portConstraint=eastwest;" parent="uvdAkfdV5YpjEirYYsNc-161" vertex="1">
                    <mxGeometry y="150" width="600" height="30" as="geometry"/>
                </mxCell>
                <mxCell id="uvdAkfdV5YpjEirYYsNc-183" value="商品カテゴリー" style="shape=partialRectangle;connectable=0;fillColor=none;top=0;left=0;bottom=0;right=0;editable=1;overflow=hidden;" parent="uvdAkfdV5YpjEirYYsNc-182" vertex="1">
                    <mxGeometry width="100" height="30" as="geometry"/>
                </mxCell>
                <mxCell id="uvdAkfdV5YpjEirYYsNc-184" value="category" style="shape=partialRectangle;connectable=0;fillColor=none;top=0;left=0;bottom=0;right=0;align=left;spacingLeft=6;overflow=hidden;" parent="uvdAkfdV5YpjEirYYsNc-182" vertex="1">
                    <mxGeometry x="100" width="110" height="30" as="geometry"/>
                </mxCell>
                <mxCell id="59" value="integer" style="shape=partialRectangle;connectable=0;fillColor=none;top=0;left=0;bottom=0;right=0;align=left;spacingLeft=6;overflow=hidden;" parent="uvdAkfdV5YpjEirYYsNc-182" vertex="1">
                    <mxGeometry x="210" width="110" height="30" as="geometry"/>
                </mxCell>
                <mxCell id="uvdAkfdV5YpjEirYYsNc-185" value="null: false" style="shape=partialRectangle;connectable=0;fillColor=none;top=0;left=0;bottom=0;right=0;align=left;spacingLeft=6;overflow=hidden;" parent="uvdAkfdV5YpjEirYYsNc-182" vertex="1">
                    <mxGeometry x="320" width="90" height="30" as="geometry"/>
                </mxCell>
                <mxCell id="83" value="カテゴリ選択" style="shape=partialRectangle;connectable=0;fillColor=none;top=0;left=0;bottom=0;right=0;align=left;spacingLeft=6;overflow=hidden;" vertex="1" parent="uvdAkfdV5YpjEirYYsNc-182">
                    <mxGeometry x="410" width="190" height="30" as="geometry"/>
                </mxCell>
                <mxCell id="uvdAkfdV5YpjEirYYsNc-187" value="" style="shape=partialRectangle;collapsible=0;dropTarget=0;pointerEvents=0;fillColor=none;top=0;left=0;bottom=0;right=0;points=[[0,0.5],[1,0.5]];portConstraint=eastwest;" parent="uvdAkfdV5YpjEirYYsNc-161" vertex="1">
                    <mxGeometry y="180" width="600" height="30" as="geometry"/>
                </mxCell>
                <mxCell id="uvdAkfdV5YpjEirYYsNc-188" value="商品の状態" style="shape=partialRectangle;connectable=0;fillColor=none;top=0;left=0;bottom=0;right=0;editable=1;overflow=hidden;" parent="uvdAkfdV5YpjEirYYsNc-187" vertex="1">
                    <mxGeometry width="100" height="30" as="geometry"/>
                </mxCell>
                <mxCell id="uvdAkfdV5YpjEirYYsNc-189" value="condition" style="shape=partialRectangle;connectable=0;fillColor=none;top=0;left=0;bottom=0;right=0;align=left;spacingLeft=6;overflow=hidden;" parent="uvdAkfdV5YpjEirYYsNc-187" vertex="1">
                    <mxGeometry x="100" width="110" height="30" as="geometry"/>
                </mxCell>
                <mxCell id="60" value="integer" style="shape=partialRectangle;connectable=0;fillColor=none;top=0;left=0;bottom=0;right=0;align=left;spacingLeft=6;overflow=hidden;" parent="uvdAkfdV5YpjEirYYsNc-187" vertex="1">
                    <mxGeometry x="210" width="110" height="30" as="geometry"/>
                </mxCell>
                <mxCell id="uvdAkfdV5YpjEirYYsNc-190" value="null: false" style="shape=partialRectangle;connectable=0;fillColor=none;top=0;left=0;bottom=0;right=0;align=left;spacingLeft=6;overflow=hidden;" parent="uvdAkfdV5YpjEirYYsNc-187" vertex="1">
                    <mxGeometry x="320" width="90" height="30" as="geometry"/>
                </mxCell>
                <mxCell id="84" value="カテゴリ選択" style="shape=partialRectangle;connectable=0;fillColor=none;top=0;left=0;bottom=0;right=0;align=left;spacingLeft=6;overflow=hidden;" vertex="1" parent="uvdAkfdV5YpjEirYYsNc-187">
                    <mxGeometry x="410" width="190" height="30" as="geometry"/>
                </mxCell>
                <mxCell id="uvdAkfdV5YpjEirYYsNc-192" value="" style="shape=partialRectangle;collapsible=0;dropTarget=0;pointerEvents=0;fillColor=none;top=0;left=0;bottom=0;right=0;points=[[0,0.5],[1,0.5]];portConstraint=eastwest;" parent="uvdAkfdV5YpjEirYYsNc-161" vertex="1">
                    <mxGeometry y="210" width="600" height="30" as="geometry"/>
                </mxCell>
                <mxCell id="uvdAkfdV5YpjEirYYsNc-193" value="配送料負担" style="shape=partialRectangle;connectable=0;fillColor=none;top=0;left=0;bottom=0;right=0;editable=1;overflow=hidden;" parent="uvdAkfdV5YpjEirYYsNc-192" vertex="1">
                    <mxGeometry width="100" height="30" as="geometry"/>
                </mxCell>
                <mxCell id="uvdAkfdV5YpjEirYYsNc-194" value="shipping_charges" style="shape=partialRectangle;connectable=0;fillColor=none;top=0;left=0;bottom=0;right=0;align=left;spacingLeft=6;overflow=hidden;" parent="uvdAkfdV5YpjEirYYsNc-192" vertex="1">
                    <mxGeometry x="100" width="110" height="30" as="geometry"/>
                </mxCell>
                <mxCell id="61" value="integer" style="shape=partialRectangle;connectable=0;fillColor=none;top=0;left=0;bottom=0;right=0;align=left;spacingLeft=6;overflow=hidden;" parent="uvdAkfdV5YpjEirYYsNc-192" vertex="1">
                    <mxGeometry x="210" width="110" height="30" as="geometry"/>
                </mxCell>
                <mxCell id="uvdAkfdV5YpjEirYYsNc-195" value="null: false" style="shape=partialRectangle;connectable=0;fillColor=none;top=0;left=0;bottom=0;right=0;align=left;spacingLeft=6;overflow=hidden;" parent="uvdAkfdV5YpjEirYYsNc-192" vertex="1">
                    <mxGeometry x="320" width="90" height="30" as="geometry"/>
                </mxCell>
                <mxCell id="85" value="カテゴリ選択" style="shape=partialRectangle;connectable=0;fillColor=none;top=0;left=0;bottom=0;right=0;align=left;spacingLeft=6;overflow=hidden;" vertex="1" parent="uvdAkfdV5YpjEirYYsNc-192">
                    <mxGeometry x="410" width="190" height="30" as="geometry"/>
                </mxCell>
                <mxCell id="uvdAkfdV5YpjEirYYsNc-197" value="" style="shape=partialRectangle;collapsible=0;dropTarget=0;pointerEvents=0;fillColor=none;top=0;left=0;bottom=0;right=0;points=[[0,0.5],[1,0.5]];portConstraint=eastwest;" parent="uvdAkfdV5YpjEirYYsNc-161" vertex="1">
                    <mxGeometry y="240" width="600" height="30" as="geometry"/>
                </mxCell>
                <mxCell id="uvdAkfdV5YpjEirYYsNc-198" value="配送元の地域" style="shape=partialRectangle;connectable=0;fillColor=none;top=0;left=0;bottom=0;right=0;editable=1;overflow=hidden;" parent="uvdAkfdV5YpjEirYYsNc-197" vertex="1">
                    <mxGeometry width="100" height="30" as="geometry"/>
                </mxCell>
                <mxCell id="uvdAkfdV5YpjEirYYsNc-199" value="prefectures" style="shape=partialRectangle;connectable=0;fillColor=none;top=0;left=0;bottom=0;right=0;align=left;spacingLeft=6;overflow=hidden;" parent="uvdAkfdV5YpjEirYYsNc-197" vertex="1">
                    <mxGeometry x="100" width="110" height="30" as="geometry"/>
                </mxCell>
                <mxCell id="62" value="integer" style="shape=partialRectangle;connectable=0;fillColor=none;top=0;left=0;bottom=0;right=0;align=left;spacingLeft=6;overflow=hidden;" parent="uvdAkfdV5YpjEirYYsNc-197" vertex="1">
                    <mxGeometry x="210" width="110" height="30" as="geometry"/>
                </mxCell>
                <mxCell id="uvdAkfdV5YpjEirYYsNc-200" value="null: false" style="shape=partialRectangle;connectable=0;fillColor=none;top=0;left=0;bottom=0;right=0;align=left;spacingLeft=6;overflow=hidden;" parent="uvdAkfdV5YpjEirYYsNc-197" vertex="1">
                    <mxGeometry x="320" width="90" height="30" as="geometry"/>
                </mxCell>
                <mxCell id="86" value="カテゴリ選択" style="shape=partialRectangle;connectable=0;fillColor=none;top=0;left=0;bottom=0;right=0;align=left;spacingLeft=6;overflow=hidden;" vertex="1" parent="uvdAkfdV5YpjEirYYsNc-197">
                    <mxGeometry x="410" width="190" height="30" as="geometry"/>
                </mxCell>
                <mxCell id="uvdAkfdV5YpjEirYYsNc-202" value="" style="shape=partialRectangle;collapsible=0;dropTarget=0;pointerEvents=0;fillColor=none;top=0;left=0;bottom=0;right=0;points=[[0,0.5],[1,0.5]];portConstraint=eastwest;" parent="uvdAkfdV5YpjEirYYsNc-161" vertex="1">
                    <mxGeometry y="270" width="600" height="30" as="geometry"/>
                </mxCell>
                <mxCell id="uvdAkfdV5YpjEirYYsNc-203" value="発送までの日時" style="shape=partialRectangle;connectable=0;fillColor=none;top=0;left=0;bottom=0;right=0;editable=1;overflow=hidden;" parent="uvdAkfdV5YpjEirYYsNc-202" vertex="1">
                    <mxGeometry width="100" height="30" as="geometry"/>
                </mxCell>
                <mxCell id="uvdAkfdV5YpjEirYYsNc-204" value="shipping_time" style="shape=partialRectangle;connectable=0;fillColor=none;top=0;left=0;bottom=0;right=0;align=left;spacingLeft=6;overflow=hidden;" parent="uvdAkfdV5YpjEirYYsNc-202" vertex="1">
                    <mxGeometry x="100" width="110" height="30" as="geometry"/>
                </mxCell>
                <mxCell id="63" value="integer" style="shape=partialRectangle;connectable=0;fillColor=none;top=0;left=0;bottom=0;right=0;align=left;spacingLeft=6;overflow=hidden;" parent="uvdAkfdV5YpjEirYYsNc-202" vertex="1">
                    <mxGeometry x="210" width="110" height="30" as="geometry"/>
                </mxCell>
                <mxCell id="uvdAkfdV5YpjEirYYsNc-205" value="null: false" style="shape=partialRectangle;connectable=0;fillColor=none;top=0;left=0;bottom=0;right=0;align=left;spacingLeft=6;overflow=hidden;" parent="uvdAkfdV5YpjEirYYsNc-202" vertex="1">
                    <mxGeometry x="320" width="90" height="30" as="geometry"/>
                </mxCell>
                <mxCell id="87" value="カテゴリ選択" style="shape=partialRectangle;connectable=0;fillColor=none;top=0;left=0;bottom=0;right=0;align=left;spacingLeft=6;overflow=hidden;" vertex="1" parent="uvdAkfdV5YpjEirYYsNc-202">
                    <mxGeometry x="410" width="190" height="30" as="geometry"/>
                </mxCell>
                <mxCell id="uvdAkfdV5YpjEirYYsNc-207" value="" style="shape=partialRectangle;collapsible=0;dropTarget=0;pointerEvents=0;fillColor=none;top=0;left=0;bottom=0;right=0;points=[[0,0.5],[1,0.5]];portConstraint=eastwest;" parent="uvdAkfdV5YpjEirYYsNc-161" vertex="1">
                    <mxGeometry y="300" width="600" height="30" as="geometry"/>
                </mxCell>
                <mxCell id="uvdAkfdV5YpjEirYYsNc-208" value="販売価格" style="shape=partialRectangle;connectable=0;fillColor=none;top=0;left=0;bottom=0;right=0;editable=1;overflow=hidden;" parent="uvdAkfdV5YpjEirYYsNc-207" vertex="1">
                    <mxGeometry width="100" height="30" as="geometry"/>
                </mxCell>
                <mxCell id="uvdAkfdV5YpjEirYYsNc-209" value="price" style="shape=partialRectangle;connectable=0;fillColor=none;top=0;left=0;bottom=0;right=0;align=left;spacingLeft=6;overflow=hidden;" parent="uvdAkfdV5YpjEirYYsNc-207" vertex="1">
                    <mxGeometry x="100" width="110" height="30" as="geometry"/>
                </mxCell>
                <mxCell id="64" value="integer" style="shape=partialRectangle;connectable=0;fillColor=none;top=0;left=0;bottom=0;right=0;align=left;spacingLeft=6;overflow=hidden;" parent="uvdAkfdV5YpjEirYYsNc-207" vertex="1">
                    <mxGeometry x="210" width="110" height="30" as="geometry"/>
                </mxCell>
                <mxCell id="uvdAkfdV5YpjEirYYsNc-210" value="null: false" style="shape=partialRectangle;connectable=0;fillColor=none;top=0;left=0;bottom=0;right=0;align=left;spacingLeft=6;overflow=hidden;" parent="uvdAkfdV5YpjEirYYsNc-207" vertex="1">
                    <mxGeometry x="320" width="90" height="30" as="geometry"/>
                </mxCell>
                <mxCell id="88" style="shape=partialRectangle;connectable=0;fillColor=none;top=0;left=0;bottom=0;right=0;align=left;spacingLeft=6;overflow=hidden;" vertex="1" parent="uvdAkfdV5YpjEirYYsNc-207">
                    <mxGeometry x="410" width="190" height="30" as="geometry"/>
                </mxCell>
                <mxCell id="uvdAkfdV5YpjEirYYsNc-375" value="" style="shape=partialRectangle;collapsible=0;dropTarget=0;pointerEvents=0;fillColor=none;top=0;left=0;bottom=0;right=0;points=[[0,0.5],[1,0.5]];portConstraint=eastwest;" parent="uvdAkfdV5YpjEirYYsNc-161" vertex="1">
                    <mxGeometry y="330" width="600" height="30" as="geometry"/>
                </mxCell>
                <mxCell id="uvdAkfdV5YpjEirYYsNc-376" value="誰が出品したか" style="shape=partialRectangle;connectable=0;fillColor=none;top=0;left=0;bottom=0;right=0;editable=1;overflow=hidden;" parent="uvdAkfdV5YpjEirYYsNc-375" vertex="1">
                    <mxGeometry width="100" height="30" as="geometry"/>
                </mxCell>
                <mxCell id="uvdAkfdV5YpjEirYYsNc-377" value="user_id" style="shape=partialRectangle;connectable=0;fillColor=none;top=0;left=0;bottom=0;right=0;align=left;spacingLeft=6;overflow=hidden;" parent="uvdAkfdV5YpjEirYYsNc-375" vertex="1">
                    <mxGeometry x="100" width="110" height="30" as="geometry"/>
                </mxCell>
                <mxCell id="65" value="references" style="shape=partialRectangle;connectable=0;fillColor=none;top=0;left=0;bottom=0;right=0;align=left;spacingLeft=6;overflow=hidden;" parent="uvdAkfdV5YpjEirYYsNc-375" vertex="1">
                    <mxGeometry x="210" width="110" height="30" as="geometry"/>
                </mxCell>
                <mxCell id="uvdAkfdV5YpjEirYYsNc-378" value="null: false" style="shape=partialRectangle;connectable=0;fillColor=none;top=0;left=0;bottom=0;right=0;align=left;spacingLeft=6;overflow=hidden;" parent="uvdAkfdV5YpjEirYYsNc-375" vertex="1">
                    <mxGeometry x="320" width="90" height="30" as="geometry"/>
                </mxCell>
                <mxCell id="89" value="foreign_key: true" style="shape=partialRectangle;connectable=0;fillColor=none;top=0;left=0;bottom=0;right=0;align=left;spacingLeft=6;overflow=hidden;" vertex="1" parent="uvdAkfdV5YpjEirYYsNc-375">
                    <mxGeometry x="410" width="190" height="30" as="geometry"/>
                </mxCell>
                <mxCell id="uvdAkfdV5YpjEirYYsNc-263" value="購入記録&#10;purchase_records" style="shape=table;startSize=40;container=1;collapsible=1;childLayout=tableLayout;fixedRows=1;rowLines=0;fontStyle=1;align=center;resizeLast=1;" parent="1" vertex="1">
                    <mxGeometry x="-10" y="700" width="520" height="130" as="geometry"/>
                </mxCell>
                <mxCell id="uvdAkfdV5YpjEirYYsNc-264" value="" style="shape=partialRectangle;collapsible=0;dropTarget=0;pointerEvents=0;fillColor=none;top=0;left=0;bottom=1;right=0;points=[[0,0.5],[1,0.5]];portConstraint=eastwest;" parent="uvdAkfdV5YpjEirYYsNc-263" vertex="1">
                    <mxGeometry y="40" width="520" height="30" as="geometry"/>
                </mxCell>
                <mxCell id="uvdAkfdV5YpjEirYYsNc-265" value="保存したいもの" style="shape=partialRectangle;connectable=0;fillColor=none;top=0;left=0;bottom=0;right=0;fontStyle=1;overflow=hidden;" parent="uvdAkfdV5YpjEirYYsNc-264" vertex="1">
                    <mxGeometry width="120" height="30" as="geometry"/>
                </mxCell>
                <mxCell id="uvdAkfdV5YpjEirYYsNc-266" value="column" style="shape=partialRectangle;connectable=0;fillColor=none;top=0;left=0;bottom=0;right=0;align=left;spacingLeft=6;fontStyle=5;overflow=hidden;" parent="uvdAkfdV5YpjEirYYsNc-264" vertex="1">
                    <mxGeometry x="120" width="70" height="30" as="geometry"/>
                </mxCell>
                <mxCell id="44" value="型" style="shape=partialRectangle;connectable=0;fillColor=none;top=0;left=0;bottom=0;right=0;align=left;spacingLeft=6;fontStyle=5;overflow=hidden;" parent="uvdAkfdV5YpjEirYYsNc-264" vertex="1">
                    <mxGeometry x="190" width="100" height="30" as="geometry"/>
                </mxCell>
                <mxCell id="uvdAkfdV5YpjEirYYsNc-267" value="必須かどうか" style="shape=partialRectangle;connectable=0;fillColor=none;top=0;left=0;bottom=0;right=0;align=left;spacingLeft=6;fontStyle=5;overflow=hidden;" parent="uvdAkfdV5YpjEirYYsNc-264" vertex="1">
                    <mxGeometry x="290" width="90" height="30" as="geometry"/>
                </mxCell>
                <mxCell id="uvdAkfdV5YpjEirYYsNc-268" value="備考" style="shape=partialRectangle;connectable=0;fillColor=none;top=0;left=0;bottom=0;right=0;align=left;spacingLeft=6;fontStyle=5;overflow=hidden;" parent="uvdAkfdV5YpjEirYYsNc-264" vertex="1">
                    <mxGeometry x="380" width="140" height="30" as="geometry"/>
                </mxCell>
                <mxCell id="uvdAkfdV5YpjEirYYsNc-446" value="" style="shape=partialRectangle;collapsible=0;dropTarget=0;pointerEvents=0;fillColor=none;top=0;left=0;bottom=0;right=0;points=[[0,0.5],[1,0.5]];portConstraint=eastwest;" parent="uvdAkfdV5YpjEirYYsNc-263" vertex="1">
                    <mxGeometry y="70" width="520" height="30" as="geometry"/>
                </mxCell>
                <mxCell id="uvdAkfdV5YpjEirYYsNc-447" value="誰が購入したのか？" style="shape=partialRectangle;connectable=0;fillColor=none;top=0;left=0;bottom=0;right=0;editable=1;overflow=hidden;" parent="uvdAkfdV5YpjEirYYsNc-446" vertex="1">
                    <mxGeometry width="120" height="30" as="geometry"/>
                </mxCell>
                <mxCell id="uvdAkfdV5YpjEirYYsNc-448" value="user_id" style="shape=partialRectangle;connectable=0;fillColor=none;top=0;left=0;bottom=0;right=0;align=left;spacingLeft=6;overflow=hidden;" parent="uvdAkfdV5YpjEirYYsNc-446" vertex="1">
                    <mxGeometry x="120" width="70" height="30" as="geometry"/>
                </mxCell>
                <mxCell id="45" value="references" style="shape=partialRectangle;connectable=0;fillColor=none;top=0;left=0;bottom=0;right=0;align=left;spacingLeft=6;overflow=hidden;" parent="uvdAkfdV5YpjEirYYsNc-446" vertex="1">
                    <mxGeometry x="190" width="100" height="30" as="geometry"/>
                </mxCell>
                <mxCell id="uvdAkfdV5YpjEirYYsNc-449" value="null: false" style="shape=partialRectangle;connectable=0;fillColor=none;top=0;left=0;bottom=0;right=0;align=left;spacingLeft=6;overflow=hidden;" parent="uvdAkfdV5YpjEirYYsNc-446" vertex="1">
                    <mxGeometry x="290" width="90" height="30" as="geometry"/>
                </mxCell>
                <mxCell id="uvdAkfdV5YpjEirYYsNc-450" value="foreign_key: true" style="shape=partialRectangle;connectable=0;fillColor=none;top=0;left=0;bottom=0;right=0;align=left;spacingLeft=6;overflow=hidden;" parent="uvdAkfdV5YpjEirYYsNc-446" vertex="1">
                    <mxGeometry x="380" width="140" height="30" as="geometry"/>
                </mxCell>
                <mxCell id="6" value="" style="shape=partialRectangle;collapsible=0;dropTarget=0;pointerEvents=0;fillColor=none;top=0;left=0;bottom=0;right=0;points=[[0,0.5],[1,0.5]];portConstraint=eastwest;" parent="uvdAkfdV5YpjEirYYsNc-263" vertex="1">
                    <mxGeometry y="100" width="520" height="30" as="geometry"/>
                </mxCell>
                <mxCell id="7" value="何を買ったのか？" style="shape=partialRectangle;connectable=0;fillColor=none;top=0;left=0;bottom=0;right=0;editable=1;overflow=hidden;" parent="6" vertex="1">
                    <mxGeometry width="120" height="30" as="geometry"/>
                </mxCell>
                <mxCell id="8" value="Item_id" style="shape=partialRectangle;connectable=0;fillColor=none;top=0;left=0;bottom=0;right=0;align=left;spacingLeft=6;overflow=hidden;" parent="6" vertex="1">
                    <mxGeometry x="120" width="70" height="30" as="geometry"/>
                </mxCell>
                <mxCell id="46" value="references" style="shape=partialRectangle;connectable=0;fillColor=none;top=0;left=0;bottom=0;right=0;align=left;spacingLeft=6;overflow=hidden;" parent="6" vertex="1">
                    <mxGeometry x="190" width="100" height="30" as="geometry"/>
                </mxCell>
                <mxCell id="9" value="null: false" style="shape=partialRectangle;connectable=0;fillColor=none;top=0;left=0;bottom=0;right=0;align=left;spacingLeft=6;overflow=hidden;" parent="6" vertex="1">
                    <mxGeometry x="290" width="90" height="30" as="geometry"/>
                </mxCell>
                <mxCell id="10" value="foreign_key: true" style="shape=partialRectangle;connectable=0;fillColor=none;top=0;left=0;bottom=0;right=0;align=left;spacingLeft=6;overflow=hidden;" parent="6" vertex="1">
                    <mxGeometry x="380" width="140" height="30" as="geometry"/>
                </mxCell>
                <mxCell id="uvdAkfdV5YpjEirYYsNc-315" value="発送先情報&#10;shipping_add_infos" style="shape=table;startSize=40;container=1;collapsible=1;childLayout=tableLayout;fixedRows=1;rowLines=0;fontStyle=1;align=center;resizeLast=1;" parent="1" vertex="1">
                    <mxGeometry x="670" y="770" width="630" height="280" as="geometry"/>
                </mxCell>
                <mxCell id="uvdAkfdV5YpjEirYYsNc-316" value="" style="shape=partialRectangle;collapsible=0;dropTarget=0;pointerEvents=0;fillColor=none;top=0;left=0;bottom=1;right=0;points=[[0,0.5],[1,0.5]];portConstraint=eastwest;" parent="uvdAkfdV5YpjEirYYsNc-315" vertex="1">
                    <mxGeometry y="40" width="630" height="30" as="geometry"/>
                </mxCell>
                <mxCell id="uvdAkfdV5YpjEirYYsNc-317" value="保存したいもの" style="shape=partialRectangle;connectable=0;fillColor=none;top=0;left=0;bottom=0;right=0;fontStyle=1;overflow=hidden;" parent="uvdAkfdV5YpjEirYYsNc-316" vertex="1">
                    <mxGeometry width="140" height="30" as="geometry"/>
                </mxCell>
                <mxCell id="uvdAkfdV5YpjEirYYsNc-318" value="column" style="shape=partialRectangle;connectable=0;fillColor=none;top=0;left=0;bottom=0;right=0;align=left;spacingLeft=6;fontStyle=5;overflow=hidden;" parent="uvdAkfdV5YpjEirYYsNc-316" vertex="1">
                    <mxGeometry x="140" width="120" height="30" as="geometry"/>
                </mxCell>
                <mxCell id="47" value="型" style="shape=partialRectangle;connectable=0;fillColor=none;top=0;left=0;bottom=0;right=0;align=left;spacingLeft=6;fontStyle=5;overflow=hidden;" parent="uvdAkfdV5YpjEirYYsNc-316" vertex="1">
                    <mxGeometry x="260" width="120" height="30" as="geometry"/>
                </mxCell>
                <mxCell id="uvdAkfdV5YpjEirYYsNc-319" value="必須かどうか" style="shape=partialRectangle;connectable=0;fillColor=none;top=0;left=0;bottom=0;right=0;align=left;spacingLeft=6;fontStyle=5;overflow=hidden;" parent="uvdAkfdV5YpjEirYYsNc-316" vertex="1">
                    <mxGeometry x="380" width="120" height="30" as="geometry"/>
                </mxCell>
                <mxCell id="uvdAkfdV5YpjEirYYsNc-320" value="備考" style="shape=partialRectangle;connectable=0;fillColor=none;top=0;left=0;bottom=0;right=0;align=left;spacingLeft=6;fontStyle=5;overflow=hidden;" parent="uvdAkfdV5YpjEirYYsNc-316" vertex="1">
                    <mxGeometry x="500" width="130" height="30" as="geometry"/>
                </mxCell>
                <mxCell id="uvdAkfdV5YpjEirYYsNc-284" value="" style="shape=partialRectangle;collapsible=0;dropTarget=0;pointerEvents=0;fillColor=none;top=0;left=0;bottom=0;right=0;points=[[0,0.5],[1,0.5]];portConstraint=eastwest;" parent="uvdAkfdV5YpjEirYYsNc-315" vertex="1">
                    <mxGeometry y="70" width="630" height="30" as="geometry"/>
                </mxCell>
                <mxCell id="uvdAkfdV5YpjEirYYsNc-285" value="配送先郵便番号" style="shape=partialRectangle;connectable=0;fillColor=none;top=0;left=0;bottom=0;right=0;editable=1;overflow=hidden;" parent="uvdAkfdV5YpjEirYYsNc-284" vertex="1">
                    <mxGeometry width="140" height="30" as="geometry"/>
                </mxCell>
                <mxCell id="uvdAkfdV5YpjEirYYsNc-286" value="postal_code" style="shape=partialRectangle;connectable=0;fillColor=none;top=0;left=0;bottom=0;right=0;align=left;spacingLeft=6;overflow=hidden;" parent="uvdAkfdV5YpjEirYYsNc-284" vertex="1">
                    <mxGeometry x="140" width="120" height="30" as="geometry"/>
                </mxCell>
                <mxCell id="48" value="string" style="shape=partialRectangle;connectable=0;fillColor=none;top=0;left=0;bottom=0;right=0;align=left;spacingLeft=6;overflow=hidden;" parent="uvdAkfdV5YpjEirYYsNc-284" vertex="1">
                    <mxGeometry x="260" width="120" height="30" as="geometry"/>
                </mxCell>
                <mxCell id="uvdAkfdV5YpjEirYYsNc-287" value="null: false" style="shape=partialRectangle;connectable=0;fillColor=none;top=0;left=0;bottom=0;right=0;align=left;spacingLeft=6;overflow=hidden;" parent="uvdAkfdV5YpjEirYYsNc-284" vertex="1">
                    <mxGeometry x="380" width="120" height="30" as="geometry"/>
                </mxCell>
                <mxCell id="uvdAkfdV5YpjEirYYsNc-288" style="shape=partialRectangle;connectable=0;fillColor=none;top=0;left=0;bottom=0;right=0;align=left;spacingLeft=6;overflow=hidden;" parent="uvdAkfdV5YpjEirYYsNc-284" vertex="1">
                    <mxGeometry x="500" width="130" height="30" as="geometry"/>
                </mxCell>
                <mxCell id="uvdAkfdV5YpjEirYYsNc-289" value="" style="shape=partialRectangle;collapsible=0;dropTarget=0;pointerEvents=0;fillColor=none;top=0;left=0;bottom=0;right=0;points=[[0,0.5],[1,0.5]];portConstraint=eastwest;" parent="uvdAkfdV5YpjEirYYsNc-315" vertex="1">
                    <mxGeometry y="100" width="630" height="30" as="geometry"/>
                </mxCell>
                <mxCell id="uvdAkfdV5YpjEirYYsNc-290" value="配送先都道府県" style="shape=partialRectangle;connectable=0;fillColor=none;top=0;left=0;bottom=0;right=0;editable=1;overflow=hidden;" parent="uvdAkfdV5YpjEirYYsNc-289" vertex="1">
                    <mxGeometry width="140" height="30" as="geometry"/>
                </mxCell>
                <mxCell id="uvdAkfdV5YpjEirYYsNc-291" value="prefectures" style="shape=partialRectangle;connectable=0;fillColor=none;top=0;left=0;bottom=0;right=0;align=left;spacingLeft=6;overflow=hidden;" parent="uvdAkfdV5YpjEirYYsNc-289" vertex="1">
                    <mxGeometry x="140" width="120" height="30" as="geometry"/>
                </mxCell>
                <mxCell id="49" value="integer" style="shape=partialRectangle;connectable=0;fillColor=none;top=0;left=0;bottom=0;right=0;align=left;spacingLeft=6;overflow=hidden;" parent="uvdAkfdV5YpjEirYYsNc-289" vertex="1">
                    <mxGeometry x="260" width="120" height="30" as="geometry"/>
                </mxCell>
                <mxCell id="uvdAkfdV5YpjEirYYsNc-292" value="null: false" style="shape=partialRectangle;connectable=0;fillColor=none;top=0;left=0;bottom=0;right=0;align=left;spacingLeft=6;overflow=hidden;" parent="uvdAkfdV5YpjEirYYsNc-289" vertex="1">
                    <mxGeometry x="380" width="120" height="30" as="geometry"/>
                </mxCell>
                <mxCell id="uvdAkfdV5YpjEirYYsNc-293" value="カテゴリ選択" style="shape=partialRectangle;connectable=0;fillColor=none;top=0;left=0;bottom=0;right=0;align=left;spacingLeft=6;overflow=hidden;" parent="uvdAkfdV5YpjEirYYsNc-289" vertex="1">
                    <mxGeometry x="500" width="130" height="30" as="geometry"/>
                </mxCell>
                <mxCell id="uvdAkfdV5YpjEirYYsNc-294" value="" style="shape=partialRectangle;collapsible=0;dropTarget=0;pointerEvents=0;fillColor=none;top=0;left=0;bottom=0;right=0;points=[[0,0.5],[1,0.5]];portConstraint=eastwest;" parent="uvdAkfdV5YpjEirYYsNc-315" vertex="1">
                    <mxGeometry y="130" width="630" height="30" as="geometry"/>
                </mxCell>
                <mxCell id="uvdAkfdV5YpjEirYYsNc-295" value="配送先市区町村" style="shape=partialRectangle;connectable=0;fillColor=none;top=0;left=0;bottom=0;right=0;editable=1;overflow=hidden;" parent="uvdAkfdV5YpjEirYYsNc-294" vertex="1">
                    <mxGeometry width="140" height="30" as="geometry"/>
                </mxCell>
                <mxCell id="uvdAkfdV5YpjEirYYsNc-296" value="municipality" style="shape=partialRectangle;connectable=0;fillColor=none;top=0;left=0;bottom=0;right=0;align=left;spacingLeft=6;overflow=hidden;" parent="uvdAkfdV5YpjEirYYsNc-294" vertex="1">
                    <mxGeometry x="140" width="120" height="30" as="geometry"/>
                </mxCell>
                <mxCell id="50" value="string" style="shape=partialRectangle;connectable=0;fillColor=none;top=0;left=0;bottom=0;right=0;align=left;spacingLeft=6;overflow=hidden;" parent="uvdAkfdV5YpjEirYYsNc-294" vertex="1">
                    <mxGeometry x="260" width="120" height="30" as="geometry"/>
                </mxCell>
                <mxCell id="uvdAkfdV5YpjEirYYsNc-297" value="null: false" style="shape=partialRectangle;connectable=0;fillColor=none;top=0;left=0;bottom=0;right=0;align=left;spacingLeft=6;overflow=hidden;" parent="uvdAkfdV5YpjEirYYsNc-294" vertex="1">
                    <mxGeometry x="380" width="120" height="30" as="geometry"/>
                </mxCell>
                <mxCell id="uvdAkfdV5YpjEirYYsNc-298" style="shape=partialRectangle;connectable=0;fillColor=none;top=0;left=0;bottom=0;right=0;align=left;spacingLeft=6;overflow=hidden;" parent="uvdAkfdV5YpjEirYYsNc-294" vertex="1">
                    <mxGeometry x="500" width="130" height="30" as="geometry"/>
                </mxCell>
                <mxCell id="uvdAkfdV5YpjEirYYsNc-299" value="" style="shape=partialRectangle;collapsible=0;dropTarget=0;pointerEvents=0;fillColor=none;top=0;left=0;bottom=0;right=0;points=[[0,0.5],[1,0.5]];portConstraint=eastwest;" parent="uvdAkfdV5YpjEirYYsNc-315" vertex="1">
                    <mxGeometry y="160" width="630" height="30" as="geometry"/>
                </mxCell>
                <mxCell id="uvdAkfdV5YpjEirYYsNc-300" value="配送先番地" style="shape=partialRectangle;connectable=0;fillColor=none;top=0;left=0;bottom=0;right=0;editable=1;overflow=hidden;" parent="uvdAkfdV5YpjEirYYsNc-299" vertex="1">
                    <mxGeometry width="140" height="30" as="geometry"/>
                </mxCell>
                <mxCell id="uvdAkfdV5YpjEirYYsNc-301" value="street_address" style="shape=partialRectangle;connectable=0;fillColor=none;top=0;left=0;bottom=0;right=0;align=left;spacingLeft=6;overflow=hidden;" parent="uvdAkfdV5YpjEirYYsNc-299" vertex="1">
                    <mxGeometry x="140" width="120" height="30" as="geometry"/>
                </mxCell>
                <mxCell id="51" value="string" style="shape=partialRectangle;connectable=0;fillColor=none;top=0;left=0;bottom=0;right=0;align=left;spacingLeft=6;overflow=hidden;" parent="uvdAkfdV5YpjEirYYsNc-299" vertex="1">
                    <mxGeometry x="260" width="120" height="30" as="geometry"/>
                </mxCell>
                <mxCell id="uvdAkfdV5YpjEirYYsNc-302" value="null: false" style="shape=partialRectangle;connectable=0;fillColor=none;top=0;left=0;bottom=0;right=0;align=left;spacingLeft=6;overflow=hidden;" parent="uvdAkfdV5YpjEirYYsNc-299" vertex="1">
                    <mxGeometry x="380" width="120" height="30" as="geometry"/>
                </mxCell>
                <mxCell id="uvdAkfdV5YpjEirYYsNc-303" style="shape=partialRectangle;connectable=0;fillColor=none;top=0;left=0;bottom=0;right=0;align=left;spacingLeft=6;overflow=hidden;" parent="uvdAkfdV5YpjEirYYsNc-299" vertex="1">
                    <mxGeometry x="500" width="130" height="30" as="geometry"/>
                </mxCell>
                <mxCell id="uvdAkfdV5YpjEirYYsNc-304" value="" style="shape=partialRectangle;collapsible=0;dropTarget=0;pointerEvents=0;fillColor=none;top=0;left=0;bottom=0;right=0;points=[[0,0.5],[1,0.5]];portConstraint=eastwest;" parent="uvdAkfdV5YpjEirYYsNc-315" vertex="1">
                    <mxGeometry y="190" width="630" height="30" as="geometry"/>
                </mxCell>
                <mxCell id="uvdAkfdV5YpjEirYYsNc-305" value="配送先建物名" style="shape=partialRectangle;connectable=0;fillColor=none;top=0;left=0;bottom=0;right=0;editable=1;overflow=hidden;" parent="uvdAkfdV5YpjEirYYsNc-304" vertex="1">
                    <mxGeometry width="140" height="30" as="geometry"/>
                </mxCell>
                <mxCell id="uvdAkfdV5YpjEirYYsNc-306" value="building_name" style="shape=partialRectangle;connectable=0;fillColor=none;top=0;left=0;bottom=0;right=0;align=left;spacingLeft=6;overflow=hidden;" parent="uvdAkfdV5YpjEirYYsNc-304" vertex="1">
                    <mxGeometry x="140" width="120" height="30" as="geometry"/>
                </mxCell>
                <mxCell id="52" value="string" style="shape=partialRectangle;connectable=0;fillColor=none;top=0;left=0;bottom=0;right=0;align=left;spacingLeft=6;overflow=hidden;" parent="uvdAkfdV5YpjEirYYsNc-304" vertex="1">
                    <mxGeometry x="260" width="120" height="30" as="geometry"/>
                </mxCell>
                <mxCell id="uvdAkfdV5YpjEirYYsNc-307" style="shape=partialRectangle;connectable=0;fillColor=none;top=0;left=0;bottom=0;right=0;align=left;spacingLeft=6;overflow=hidden;" parent="uvdAkfdV5YpjEirYYsNc-304" vertex="1">
                    <mxGeometry x="380" width="120" height="30" as="geometry"/>
                </mxCell>
                <mxCell id="uvdAkfdV5YpjEirYYsNc-308" style="shape=partialRectangle;connectable=0;fillColor=none;top=0;left=0;bottom=0;right=0;align=left;spacingLeft=6;overflow=hidden;" parent="uvdAkfdV5YpjEirYYsNc-304" vertex="1">
                    <mxGeometry x="500" width="130" height="30" as="geometry"/>
                </mxCell>
                <mxCell id="uvdAkfdV5YpjEirYYsNc-309" value="" style="shape=partialRectangle;collapsible=0;dropTarget=0;pointerEvents=0;fillColor=none;top=0;left=0;bottom=0;right=0;points=[[0,0.5],[1,0.5]];portConstraint=eastwest;" parent="uvdAkfdV5YpjEirYYsNc-315" vertex="1">
                    <mxGeometry y="220" width="630" height="30" as="geometry"/>
                </mxCell>
                <mxCell id="uvdAkfdV5YpjEirYYsNc-310" value="電話番号" style="shape=partialRectangle;connectable=0;fillColor=none;top=0;left=0;bottom=0;right=0;editable=1;overflow=hidden;" parent="uvdAkfdV5YpjEirYYsNc-309" vertex="1">
                    <mxGeometry width="140" height="30" as="geometry"/>
                </mxCell>
                <mxCell id="uvdAkfdV5YpjEirYYsNc-311" value="phone_number" style="shape=partialRectangle;connectable=0;fillColor=none;top=0;left=0;bottom=0;right=0;align=left;spacingLeft=6;overflow=hidden;" parent="uvdAkfdV5YpjEirYYsNc-309" vertex="1">
                    <mxGeometry x="140" width="120" height="30" as="geometry"/>
                </mxCell>
                <mxCell id="53" value="integer" style="shape=partialRectangle;connectable=0;fillColor=none;top=0;left=0;bottom=0;right=0;align=left;spacingLeft=6;overflow=hidden;" parent="uvdAkfdV5YpjEirYYsNc-309" vertex="1">
                    <mxGeometry x="260" width="120" height="30" as="geometry"/>
                </mxCell>
                <mxCell id="uvdAkfdV5YpjEirYYsNc-312" value="null: false" style="shape=partialRectangle;connectable=0;fillColor=none;top=0;left=0;bottom=0;right=0;align=left;spacingLeft=6;overflow=hidden;" parent="uvdAkfdV5YpjEirYYsNc-309" vertex="1">
                    <mxGeometry x="380" width="120" height="30" as="geometry"/>
                </mxCell>
                <mxCell id="uvdAkfdV5YpjEirYYsNc-313" style="shape=partialRectangle;connectable=0;fillColor=none;top=0;left=0;bottom=0;right=0;align=left;spacingLeft=6;overflow=hidden;" parent="uvdAkfdV5YpjEirYYsNc-309" vertex="1">
                    <mxGeometry x="500" width="130" height="30" as="geometry"/>
                </mxCell>
                <mxCell id="22" value="" style="shape=partialRectangle;collapsible=0;dropTarget=0;pointerEvents=0;fillColor=none;top=0;left=0;bottom=0;right=0;points=[[0,0.5],[1,0.5]];portConstraint=eastwest;" parent="uvdAkfdV5YpjEirYYsNc-315" vertex="1">
                    <mxGeometry y="250" width="630" height="30" as="geometry"/>
                </mxCell>
                <mxCell id="23" value="どの購入情報か？" style="shape=partialRectangle;connectable=0;fillColor=none;top=0;left=0;bottom=0;right=0;editable=1;overflow=hidden;" parent="22" vertex="1">
                    <mxGeometry width="140" height="30" as="geometry"/>
                </mxCell>
                <mxCell id="24" value="purchase_record_id" style="shape=partialRectangle;connectable=0;fillColor=none;top=0;left=0;bottom=0;right=0;align=left;spacingLeft=6;overflow=hidden;" parent="22" vertex="1">
                    <mxGeometry x="140" width="120" height="30" as="geometry"/>
                </mxCell>
                <mxCell id="54" value="references" style="shape=partialRectangle;connectable=0;fillColor=none;top=0;left=0;bottom=0;right=0;align=left;spacingLeft=6;overflow=hidden;" parent="22" vertex="1">
                    <mxGeometry x="260" width="120" height="30" as="geometry"/>
                </mxCell>
                <mxCell id="25" value="null: false" style="shape=partialRectangle;connectable=0;fillColor=none;top=0;left=0;bottom=0;right=0;align=left;spacingLeft=6;overflow=hidden;" parent="22" vertex="1">
                    <mxGeometry x="380" width="120" height="30" as="geometry"/>
                </mxCell>
                <mxCell id="26" value="foreign_key: true" style="shape=partialRectangle;connectable=0;fillColor=none;top=0;left=0;bottom=0;right=0;align=left;spacingLeft=6;overflow=hidden;" parent="22" vertex="1">
                    <mxGeometry x="500" width="130" height="30" as="geometry"/>
                </mxCell>
                <mxCell id="uvdAkfdV5YpjEirYYsNc-366" value="" style="edgeStyle=orthogonalEdgeStyle;fontSize=12;html=1;endArrow=ERoneToMany;exitX=1;exitY=0.5;exitDx=0;exitDy=0;entryX=0;entryY=0.5;entryDx=0;entryDy=0;endSize=25;targetPerimeterSpacing=9;sourcePerimeterSpacing=0;startSize=25;startArrow=ERone;startFill=0;fillColor=none;" parent="1" source="uvdAkfdV5YpjEirYYsNc-85" target="uvdAkfdV5YpjEirYYsNc-182" edge="1">
                    <mxGeometry width="100" height="100" relative="1" as="geometry">
                        <mxPoint x="490" y="370" as="sourcePoint"/>
                        <mxPoint x="590" y="270" as="targetPoint"/>
                    </mxGeometry>
                </mxCell>
                <mxCell id="uvdAkfdV5YpjEirYYsNc-371" value="" style="edgeStyle=orthogonalEdgeStyle;fontSize=12;html=1;endArrow=ERoneToMany;endSize=25;targetPerimeterSpacing=0;sourcePerimeterSpacing=9;startSize=25;startArrow=ERone;startFill=0;entryX=0.5;entryY=0;entryDx=0;entryDy=0;fillColor=none;" parent="1" source="uvdAkfdV5YpjEirYYsNc-48" target="uvdAkfdV5YpjEirYYsNc-263" edge="1">
                    <mxGeometry width="100" height="100" relative="1" as="geometry">
                        <mxPoint x="680" y="355" as="sourcePoint"/>
                        <mxPoint x="470" y="425" as="targetPoint"/>
                    </mxGeometry>
                </mxCell>
                <mxCell id="uvdAkfdV5YpjEirYYsNc-372" value="" style="edgeStyle=orthogonalEdgeStyle;fontSize=12;html=1;endArrow=ERone;startArrow=ERone;startSize=25;endSize=25;sourcePerimeterSpacing=0;targetPerimeterSpacing=0;fillColor=none;endFill=0;startFill=0;" parent="1" source="uvdAkfdV5YpjEirYYsNc-263" target="uvdAkfdV5YpjEirYYsNc-161" edge="1">
                    <mxGeometry width="100" height="100" relative="1" as="geometry">
                        <mxPoint x="444" y="740" as="sourcePoint"/>
                        <mxPoint x="750" y="524" as="targetPoint"/>
                        <Array as="points">
                            <mxPoint x="350" y="670"/>
                            <mxPoint x="740" y="670"/>
                        </Array>
                    </mxGeometry>
                </mxCell>
                <mxCell id="uvdAkfdV5YpjEirYYsNc-374" value="" style="edgeStyle=orthogonalEdgeStyle;fontSize=12;html=1;endArrow=ERone;startArrow=ERone;startSize=25;endSize=25;sourcePerimeterSpacing=0;targetPerimeterSpacing=0;startFill=0;endFill=0;fillColor=none;" parent="1" source="uvdAkfdV5YpjEirYYsNc-315" target="uvdAkfdV5YpjEirYYsNc-263" edge="1">
                    <mxGeometry width="100" height="100" relative="1" as="geometry">
                        <mxPoint x="850" y="830" as="sourcePoint"/>
                        <mxPoint x="850" y="520" as="targetPoint"/>
                    </mxGeometry>
                </mxCell>
                <mxCell id="43" style="edgeStyle=orthogonalEdgeStyle;rounded=0;orthogonalLoop=1;jettySize=auto;html=1;exitX=0;exitY=0;exitDx=0;exitDy=0;entryX=0.052;entryY=-0.003;entryDx=0;entryDy=0;entryPerimeter=0;startArrow=ERone;startFill=0;endArrow=ERone;endFill=0;" parent="1" source="uvdAkfdV5YpjEirYYsNc-48" target="uvdAkfdV5YpjEirYYsNc-48" edge="1">
                    <mxGeometry relative="1" as="geometry"/>
                </mxCell>
                <mxCell id="97" value="&lt;div style=&quot;color: rgb(212 , 212 , 212) ; background-color: rgb(30 , 30 , 30) ; font-family: &amp;#34;menlo&amp;#34; , &amp;#34;monaco&amp;#34; , &amp;#34;courier new&amp;#34; , monospace ; line-height: 18px&quot;&gt;&lt;span style=&quot;color: #6796e6&quot;&gt;-&lt;/span&gt; has_many :items&lt;/div&gt;" style="text;html=1;resizable=0;autosize=1;align=center;verticalAlign=middle;points=[];fillColor=none;strokeColor=none;rounded=0;" vertex="1" parent="1">
                    <mxGeometry x="470" y="380" width="140" height="20" as="geometry"/>
                </mxCell>
                <mxCell id="99" value="&lt;div style=&quot;color: rgb(212 , 212 , 212) ; background-color: rgb(30 , 30 , 30) ; font-family: &amp;#34;menlo&amp;#34; , &amp;#34;monaco&amp;#34; , &amp;#34;courier new&amp;#34; , monospace ; font-weight: normal ; font-size: 12px ; line-height: 18px&quot;&gt;&lt;div&gt;&lt;span style=&quot;color: #6796e6&quot;&gt;-&lt;/span&gt;&lt;span style=&quot;color: #d4d4d4&quot;&gt; has_many :purchase_records&lt;/span&gt;&lt;/div&gt;&lt;/div&gt;" style="text;whiteSpace=wrap;html=1;" vertex="1" parent="1">
                    <mxGeometry x="280" y="555" width="230" height="30" as="geometry"/>
                </mxCell>
                <mxCell id="100" value="&lt;div style=&quot;color: rgb(212 , 212 , 212) ; background-color: rgb(30 , 30 , 30) ; font-family: &amp;#34;menlo&amp;#34; , &amp;#34;monaco&amp;#34; , &amp;#34;courier new&amp;#34; , monospace ; line-height: 18px&quot;&gt;&lt;div&gt;&lt;span style=&quot;color: #6796e6&quot;&gt;-&lt;/span&gt; belongs_to :user&lt;/div&gt;&lt;div&gt;&lt;span style=&quot;color: #6796e6&quot;&gt;&lt;/span&gt;&lt;/div&gt;&lt;/div&gt;" style="text;html=1;align=center;verticalAlign=middle;resizable=0;points=[];autosize=1;strokeColor=none;" vertex="1" parent="1">
                    <mxGeometry x="540" y="470" width="150" height="20" as="geometry"/>
                </mxCell>
                <mxCell id="101" value="&lt;div style=&quot;color: rgb(212 , 212 , 212) ; background-color: rgb(30 , 30 , 30) ; font-family: &amp;#34;menlo&amp;#34; , &amp;#34;monaco&amp;#34; , &amp;#34;courier new&amp;#34; , monospace ; line-height: 18px&quot;&gt;&lt;div&gt;&lt;span style=&quot;color: #6796e6&quot;&gt;-&lt;/span&gt; belongs_to : item&lt;/div&gt;&lt;/div&gt;" style="text;html=1;align=center;verticalAlign=middle;resizable=0;points=[];autosize=1;strokeColor=none;" vertex="1" parent="1">
                    <mxGeometry x="330" y="640" width="150" height="20" as="geometry"/>
                </mxCell>
                <mxCell id="102" value="&lt;div style=&quot;color: rgb(212 , 212 , 212) ; background-color: rgb(30 , 30 , 30) ; font-family: &amp;#34;menlo&amp;#34; , &amp;#34;monaco&amp;#34; , &amp;#34;courier new&amp;#34; , monospace ; line-height: 18px&quot;&gt;&lt;div&gt;&lt;span style=&quot;color: #6796e6&quot;&gt;-&lt;/span&gt; belongs_to :user&lt;/div&gt;&lt;div&gt;&lt;span style=&quot;color: #6796e6&quot;&gt;&lt;/span&gt;&lt;/div&gt;&lt;/div&gt;" style="text;html=1;align=center;verticalAlign=middle;resizable=0;points=[];autosize=1;strokeColor=none;" vertex="1" parent="1">
                    <mxGeometry x="80" y="660" width="150" height="20" as="geometry"/>
                </mxCell>
                <mxCell id="103" value="&lt;div style=&quot;color: rgb(212 , 212 , 212) ; background-color: rgb(30 , 30 , 30) ; font-family: &amp;#34;menlo&amp;#34; , &amp;#34;monaco&amp;#34; , &amp;#34;courier new&amp;#34; , monospace ; line-height: 18px&quot;&gt;&lt;div&gt;&lt;span style=&quot;color: #6796e6&quot;&gt;-&lt;/span&gt; has_one :purchase_record&lt;/div&gt;&lt;/div&gt;" style="text;html=1;align=center;verticalAlign=middle;resizable=0;points=[];autosize=1;strokeColor=none;" vertex="1" parent="1">
                    <mxGeometry x="770" y="620" width="200" height="20" as="geometry"/>
                </mxCell>
                <mxCell id="105" value="&lt;span style=&quot;color: rgba(0 , 0 , 0 , 0) ; font-family: monospace ; font-size: 0px&quot;&gt;%3CmxGraphModel%3E%3Croot%3E%3CmxCell%20id%3D%220%22%2F%3E%3CmxCell%20id%3D%221%22%20parent%3D%220%22%2F%3E%3CmxCell%20id%3D%222%22%20value%3D%22%26lt%3Bdiv%20style%3D%26quot%3Bcolor%3A%20rgb(212%20%2C%20212%20%2C%20212)%20%3B%20background-color%3A%20rgb(30%20%2C%2030%20%2C%2030)%20%3B%20font-family%3A%20%26amp%3B%2334%3Bmenlo%26amp%3B%2334%3B%20%2C%20%26amp%3B%2334%3Bmonaco%26amp%3B%2334%3B%20%2C%20%26amp%3B%2334%3Bcourier%20new%26amp%3B%2334%3B%20%2C%20monospace%20%3B%20line-height%3A%2018px%26quot%3B%26gt%3B%26lt%3Bdiv%26gt%3B%26lt%3Bspan%20style%3D%26quot%3Bcolor%3A%20%236796e6%26quot%3B%26gt%3B-%26lt%3B%2Fspan%26gt%3B%20has_one%20%3Apurchase_record%26lt%3B%2Fdiv%26gt%3B%26lt%3B%2Fdiv%26gt%3B%22%20style%3D%22text%3Bhtml%3D1%3Balign%3Dcenter%3BverticalAlign%3Dmiddle%3Bresizable%3D0%3Bpoints%3D%5B%5D%3Bautosize%3D1%3BstrokeColor%3Dnone%3B%22%20vertex%3D%221%22%20parent%3D%221%22%3E%3CmxGeometry%20x%3D%22715%22%20y%3D%22620%22%20width%3D%22200%22%20height%3D%2220%22%20as%3D%22geometry%22%2F%3E%3C%2FmxCell%3E%3C%2Froot%3E%3C%2FmxGraphModel%3E&lt;/span&gt;" style="text;html=1;align=center;verticalAlign=middle;resizable=0;points=[];autosize=1;strokeColor=none;" vertex="1" parent="1">
                    <mxGeometry x="460" y="840" width="20" height="20" as="geometry"/>
                </mxCell>
                <mxCell id="106" value="&lt;span style=&quot;color: rgba(0 , 0 , 0 , 0) ; font-family: monospace ; font-size: 0px&quot;&gt;%3CmxGraphModel%3E%3Croot%3E%3CmxCell%20id%3D%220%22%2F%3E%3CmxCell%20id%3D%221%22%20parent%3D%220%22%2F%3E%3CmxCell%20id%3D%222%22%20value%3D%22%26lt%3Bdiv%20style%3D%26quot%3Bcolor%3A%20rgb(212%20%2C%20212%20%2C%20212)%20%3B%20background-color%3A%20rgb(30%20%2C%2030%20%2C%2030)%20%3B%20font-family%3A%20%26amp%3B%2334%3Bmenlo%26amp%3B%2334%3B%20%2C%20%26amp%3B%2334%3Bmonaco%26amp%3B%2334%3B%20%2C%20%26amp%3B%2334%3Bcourier%20new%26amp%3B%2334%3B%20%2C%20monospace%20%3B%20line-height%3A%2018px%26quot%3B%26gt%3B%26lt%3Bdiv%26gt%3B%26lt%3Bspan%20style%3D%26quot%3Bcolor%3A%20%236796e6%26quot%3B%26gt%3B-%26lt%3B%2Fspan%26gt%3B%20has_one%20%3Apurchase_record%26lt%3B%2Fdiv%26gt%3B%26lt%3B%2Fdiv%26gt%3B%22%20style%3D%22text%3Bhtml%3D1%3Balign%3Dcenter%3BverticalAlign%3Dmiddle%3Bresizable%3D0%3Bpoints%3D%5B%5D%3Bautosize%3D1%3BstrokeColor%3Dnone%3B%22%20vertex%3D%221%22%20parent%3D%221%22%3E%3CmxGeometry%20x%3D%22715%22%20y%3D%22620%22%20width%3D%22200%22%20height%3D%2220%22%20as%3D%22geometry%22%2F%3E%3C%2FmxCell%3E%3C%2Froot%3E%3C%2FmxGraphModel%3E&lt;/span&gt;" style="text;html=1;align=center;verticalAlign=middle;resizable=0;points=[];autosize=1;strokeColor=none;" vertex="1" parent="1">
                    <mxGeometry x="480" y="840" width="20" height="20" as="geometry"/>
                </mxCell>
                <mxCell id="107" value="&lt;div style=&quot;color: rgb(212 , 212 , 212) ; background-color: rgb(30 , 30 , 30) ; font-family: &amp;#34;menlo&amp;#34; , &amp;#34;monaco&amp;#34; , &amp;#34;courier new&amp;#34; , monospace ; line-height: 18px&quot;&gt;&lt;div&gt;&lt;span style=&quot;color: #6796e6&quot;&gt;-&lt;/span&gt; has_one :&lt;span style=&quot;background-color: rgb(42 , 42 , 42) ; color: rgb(240 , 240 , 240) ; font-family: &amp;#34;helvetica&amp;#34; ; font-weight: 700&quot;&gt;&amp;nbsp;shipping_add_info&lt;/span&gt;&lt;/div&gt;&lt;/div&gt;" style="text;html=1;align=center;verticalAlign=middle;resizable=0;points=[];autosize=1;strokeColor=none;" vertex="1" parent="1">
                    <mxGeometry x="515" y="720" width="200" height="20" as="geometry"/>
                </mxCell>
                <mxCell id="109" value="&lt;div style=&quot;color: rgb(212 , 212 , 212) ; background-color: rgb(30 , 30 , 30) ; font-family: &amp;#34;menlo&amp;#34; , &amp;#34;monaco&amp;#34; , &amp;#34;courier new&amp;#34; , monospace ; line-height: 18px&quot;&gt;&lt;div&gt;&lt;span style=&quot;color: #6796e6&quot;&gt;-&lt;/span&gt; belongs_to :purchase_record&lt;/div&gt;&lt;/div&gt;" style="text;html=1;align=center;verticalAlign=middle;resizable=0;points=[];autosize=1;strokeColor=none;" vertex="1" parent="1">
                    <mxGeometry x="440" y="940" width="230" height="20" as="geometry"/>
                </mxCell>
            </root>
        </mxGraphModel>
    </diagram>
</mxfile>